<svg display="none" xmlns="http://www.w3.org/2000/svg">
    <symbol id="planet" viewBox="0 0 16 16">
        <g id="Icon - Planet" clip-path="url(#clip0_3114_272)">
        <g id="Union">
        <path d="M14.1692 3.71888C12.7989 1.84023 11.0012 0.775068 8.6355 0.5C9.74223 1.7817 10.5035 3.16875 10.9895 4.71966C12.0962 4.49141 13.1444 4.19294 14.1692 3.71888Z"/>
        <path d="M4.25006 5.52288C3.83001 5.41303 3.42197 5.30631 3.01989 5.18202C2.66058 5.06606 2.30606 4.93336 1.95173 4.80073C1.7517 4.72586 1.55173 4.65102 1.35101 4.57922C0.162292 6.66856 0.273551 9.63579 1.34515 11.3857C1.94399 11.1975 2.53794 11.0093 3.13731 10.8194L3.1384 10.8191C3.67559 10.6489 4.21745 10.4772 4.77076 10.303C4.45455 8.78132 4.4604 7.21285 4.77661 5.66193C4.59874 5.61407 4.42337 5.5682 4.25006 5.52288Z"/>
        <path d="M12.9458 5.15847C12.3749 5.33989 11.8035 5.52147 11.2297 5.70289C11.5459 7.23625 11.5342 8.79301 11.2297 10.2971C12.3891 10.6658 13.5193 11.0228 14.6612 11.3798C15.7855 9.45435 15.7737 6.52809 14.6612 4.61432C14.0874 4.7957 13.5166 4.97709 12.9458 5.15847Z"/>
        <path d="M5.7194 10.2269C5.39148 8.74034 5.40319 7.28307 5.70183 5.82579C5.94061 5.83983 6.17518 5.8565 6.40679 5.87296C6.9476 5.91139 7.47255 5.94869 7.99728 5.94869C8.52199 5.94869 9.0467 5.91141 9.58748 5.87298C9.81907 5.85652 10.054 5.83983 10.2927 5.82579C10.6148 7.25966 10.6031 8.72864 10.2869 10.221C8.75267 10.022 7.2536 10.0103 5.7194 10.2269Z"/>
        <path d="M14.1693 12.2753C12.8107 14.1539 11.0072 15.2132 8.64145 15.5C9.73062 14.2242 10.5094 12.843 10.9837 11.2862C12.0846 11.4969 13.1269 11.8129 14.1693 12.2753Z"/>
        <path d="M7.35894 0.5C4.99322 0.780921 3.18965 1.84608 1.78428 3.78326C2.88515 4.12271 3.92162 4.44459 4.99322 4.77819C5.49096 3.15704 6.26391 1.7817 7.35894 0.5Z"/>
        <path d="M7.35894 15.5C4.99907 15.2191 3.20136 14.1598 1.78428 12.2167C2.13525 12.1085 2.47968 12.0021 2.82079 11.8967L2.82228 11.8962C3.55057 11.6711 4.26377 11.4508 4.99322 11.2277C5.49096 12.8312 6.2522 14.2183 7.35894 15.5Z"/>
        <path d="M10.0408 4.86013C9.60158 3.48479 8.92817 2.28503 7.99711 1.19646C7.06019 2.30258 6.38093 3.4965 5.95931 4.86013C7.33541 5.04156 8.67052 5.04741 10.0408 4.86013Z"/>
        <path d="M8.00297 14.8035C7.07191 13.7208 6.39849 12.521 5.95931 11.1457C7.3237 10.9526 8.65881 10.9584 10.0466 11.1399C9.60744 12.5093 8.93403 13.7033 8.00297 14.8035Z"/>
        </g>
        </g>
        <defs>
        <clipPath id="clip0_3114_272">
        <rect width="16" height="16" fill="white"/>
        </clipPath>
        </defs>
    </symbol>

    <symbol id="plant" viewBox="0 0 100 100">
    <path d="M49.545 99.1234C22.2224 99.1234 -0.00012207 76.8906 -0.00012207 49.5783C-0.00012207 22.2661 22.2328 0.0332031 49.545 0.0332031C76.8573 0.0332031 99.0901 22.2661 99.0901 49.5783C99.0901 76.8906 76.8573 99.1234 49.545 99.1234ZM49.545 3.33272C24.0439 3.33272 3.29946 24.0772 3.29946 49.5783C3.29946 75.0795 24.0439 95.8239 49.545 95.8239C75.0462 95.8239 95.7906 75.0795 95.7906 49.5783C95.7906 24.0772 75.0462 3.33272 49.545 3.33272Z" fill="white"/>
        <path d="M81.8732 14.2242L66.5349 29.5625L69.5525 32.5801L84.8908 17.2418L81.8732 14.2242Z" fill="white"/>
        <path d="M29.0763 67.0231L13.738 82.3613L16.7556 85.3789L32.0939 70.0407L29.0763 67.0231Z" fill="white"/>
        <path d="M70.0173 67.0203L66.9998 70.0378L82.338 85.3761L85.3556 82.3585L70.0173 67.0203Z" fill="white"/>
        <path d="M16.7673 13.7593L13.7498 16.7769L29.0807 32.1078L32.0983 29.0902L16.7673 13.7593Z" fill="white"/>
        <path d="M61.641 50.9107C62.6402 49.9115 62.6402 48.2981 61.641 47.3093L59.5176 45.1963C58.5183 44.1971 56.905 44.1971 55.9162 45.1963L54.7712 46.3413L53.4494 45.0194C52.4501 44.0202 50.8368 44.0202 49.848 45.0194L48.703 46.1747L47.3811 44.8424C46.3819 43.8432 44.7685 43.8432 43.7797 44.8424L36.7539 51.8683C36.7018 51.9203 36.7018 52.0036 36.7539 52.066C37.6907 53.0028 39.2208 53.0028 40.1679 52.066L44.6957 47.5383C45.1849 47.0491 45.9759 47.0491 46.4652 47.5383L46.7982 47.8714C46.8607 47.9338 46.8607 48.0275 46.7982 48.0899L43.0199 51.8683C42.9679 51.9203 42.9679 52.0036 43.0199 52.066C43.9567 53.0028 45.4867 53.0028 46.4339 52.066L50.7743 47.7257C51.2635 47.2364 52.0546 47.2364 52.5438 47.7257L52.8768 48.0587C52.9289 48.1107 52.9289 48.194 52.8768 48.2565L49.2338 51.8995C49.1818 51.9515 49.1818 52.0348 49.2338 52.0973C50.1706 53.034 51.7007 53.034 52.6479 52.0973L56.8425 47.9026C57.3317 47.4134 58.1228 47.4134 58.612 47.9026L59.3302 48.6208C59.6112 48.9018 59.6112 49.3702 59.3302 49.6512L59.2157 49.7657C58.9347 50.0468 58.4663 50.0468 58.1853 49.7657L57.2589 48.8394C57.2069 48.7873 57.1236 48.7873 57.0611 48.8394L55.4582 50.4423C55.4062 50.4943 55.4062 50.5776 55.4582 50.6401L56.905 52.0868C57.9043 53.0861 59.5176 53.0861 60.5064 52.0868L61.6514 50.9419L61.641 50.9107Z" fill="white"/>
        <path d="M49.5461 11.5764C28.5623 11.5764 11.5546 28.5841 11.5546 49.5679C11.5546 70.5517 28.5623 87.5594 49.5461 87.5594C70.5299 87.5594 87.5376 70.5517 87.5376 49.5679C87.5376 28.5841 70.5299 11.5764 49.5461 11.5764ZM51.097 23.3069C57.1964 23.6608 62.7338 26.0964 67.0222 29.906L61.5368 35.3914C58.6744 32.9662 55.0626 31.3945 51.097 31.0614V23.3069ZM48.0056 23.3069V31.0614C44.0399 31.3841 40.4281 32.9662 37.5657 35.3914L32.0804 29.906C36.3687 26.0964 41.9061 23.6608 48.0056 23.3069ZM29.8946 32.0918L35.3799 37.5772C32.9547 40.4396 31.383 44.0514 31.0499 48.0171H23.2955C23.6494 41.9176 26.085 36.3802 29.8946 32.0918ZM23.2955 51.1084H31.0499C31.3726 55.0741 32.9547 58.6859 35.3799 61.5483L29.8946 67.0336C26.085 62.7453 23.6494 57.2079 23.2955 51.1084ZM48.0056 75.8185C41.9061 75.4646 36.3687 73.029 32.0804 69.2194L37.5657 63.7341C40.4281 66.1593 44.0399 67.731 48.0056 68.0641V75.8185ZM33.5792 49.5575C33.5792 40.7414 40.73 33.5907 49.5461 33.5907C58.3622 33.5907 65.5129 40.7414 65.5129 49.5575C65.5129 58.3736 58.3622 65.5244 49.5461 65.5244C40.73 65.5244 33.5792 58.3736 33.5792 49.5575ZM51.097 75.8185V68.0641C55.0626 67.7414 58.6744 66.1593 61.5368 63.7341L67.0222 69.2194C62.7338 73.029 57.1964 75.4646 51.097 75.8185ZM69.2079 67.0336L63.7226 61.5483C66.1479 58.6859 67.7195 55.0741 68.0526 51.1084H75.8071C75.4532 57.2079 73.0175 62.7453 69.2079 67.0336ZM68.0526 48.0171C67.7299 44.0514 66.1479 40.4396 63.7226 37.5772L69.2079 32.0918C73.0175 36.3802 75.4532 41.9176 75.8071 48.0171H68.0526Z" fill="white"/>
    </symbol>

    <symbol id="timer" viewBox="0 0 100 100">
        <g id="Timer">
        <path id="Vector" d="M49.5528 99.6273C36.8542 99.6273 24.1661 94.7977 14.4965 85.1281C-4.83233 65.7992 -4.83233 34.3548 14.4965 15.0259C23.8643 5.65815 36.313 0.505859 49.5528 0.505859C62.7926 0.505859 75.2413 5.65815 84.6091 15.0259C103.938 34.3548 103.938 65.7992 84.6091 85.1281C74.9499 94.7873 62.2513 99.6273 49.5528 99.6273ZM17.0987 82.5259C34.9911 100.418 64.104 100.418 81.9965 82.5259C99.8889 64.6335 99.8889 35.5205 81.9965 17.6281C73.3261 8.95768 61.8037 4.19049 49.5424 4.19049C37.281 4.19049 25.7586 8.96809 17.0882 17.6281C-0.8042 35.5205 -0.8042 64.6335 17.0882 82.5259H17.0987Z" fill="#7DDACF"/>
        <g id="Group">
        <path id="Vector_2" d="M51.3875 39.6426L42.207 52.5076H47.7132V61.6881L56.8936 48.8334H51.3875V39.6426Z" fill="#7DDACF"/>
        <path id="Vector_3" d="M49.5432 32.4917C39.4885 32.4917 31.3281 40.6521 31.3281 50.7068C31.3281 60.7616 39.4885 68.9011 49.5432 68.9011C59.598 68.9011 67.7584 60.7407 67.7584 50.7068C67.7584 40.6729 59.598 32.4917 49.5432 32.4917ZM49.5432 66.6528C40.7167 66.6528 33.5556 59.4917 33.5556 50.6652C33.5556 41.8387 40.7167 34.6776 49.5432 34.6776C58.3698 34.6776 65.531 41.8387 65.531 50.6652C65.531 59.4917 58.3698 66.6528 49.5432 66.6528Z" fill="#7DDACF"/>
        <path id="Vector_4" d="M77.7001 21.927C70.1851 14.4015 60.1823 10.2693 49.5447 10.2693C38.9071 10.2693 28.9148 14.4119 21.3893 21.927C5.87006 37.4462 5.87006 62.708 21.3893 78.2377C29.1542 86.0025 39.3442 89.8849 49.5447 89.8849C59.7451 89.8849 69.9352 86.0025 77.7001 78.2377C93.2194 62.7184 93.2194 37.4567 77.7001 21.927ZM49.5447 75.417C35.9302 75.417 24.845 64.3317 24.845 50.7172C24.845 44.701 26.9996 39.1845 30.5802 34.8753L27.5616 31.8568C26.6977 30.9929 26.6977 29.5877 27.5616 28.7134C28.4256 27.8391 29.8307 27.8495 30.7051 28.7134L33.7236 31.7319C37.4707 28.5989 42.1858 26.538 47.3276 26.1008V24.0607H45.2876C43.4869 24.0607 41.9984 22.5723 41.9984 20.7716V19.0542C41.9984 17.2327 43.4869 15.7651 45.2876 15.7651H53.8227C55.6234 15.7651 57.1118 17.2327 57.1118 19.0542V20.7716C57.1118 22.5723 55.6234 24.0607 53.8227 24.0607H51.7826V26.1008C56.9348 26.5484 61.6395 28.6093 65.3867 31.7319L68.4051 28.7134C69.269 27.8495 70.6742 27.8495 71.5485 28.7134C72.4125 29.5773 72.4125 30.9825 71.5485 31.8568L68.53 34.8753C72.1106 39.1845 74.2652 44.6906 74.2652 50.7172C74.2652 64.3317 63.18 75.417 49.5655 75.417H49.5447Z" fill="#7DDACF"/>
        </g>
        </g>
    </symbol>

    <symbol id="crown" viewBox="0 0 101 101">
        <g id="Crown">
        <g id="Group">
        <path id="Vector" d="M15.4923 85.4798C-3.99743 65.9901 -3.99743 34.2813 15.4923 14.7916C34.982 -4.69811 66.6907 -4.69811 86.1804 14.7916C105.67 34.2813 105.67 65.9901 86.1804 85.4798C66.6907 104.97 34.982 104.97 15.4923 85.4798ZM83.8248 17.1473C65.6338 -1.04379 36.039 -1.04379 17.8527 17.1473C-0.338378 35.3383 -0.338378 64.9331 17.8527 83.1194C36.0437 101.31 65.6385 101.31 83.8248 83.1194C102.016 64.9284 102.016 35.3336 83.8248 17.1473Z" fill="white"/>
        <g id="Group_2">
        <path id="Vector_2" d="M84.364 39.533C84.1887 39.3576 84.0465 39.1348 83.9659 38.8884C82.2359 33.7695 79.411 29.2336 75.5718 25.3944C71.7374 21.56 67.1968 18.7351 62.0779 17.0004C61.4001 16.7681 60.9451 16.1377 60.9451 15.422V3.27414C60.9451 2.76225 61.182 2.27879 61.5849 1.96123C61.9925 1.64367 62.5186 1.53466 63.0116 1.65789C71.7611 3.84764 79.7712 8.38829 86.1698 14.7916C92.5685 21.195 97.1091 29.2004 99.2989 37.9499C99.4221 38.4476 99.3084 38.9737 98.9955 39.3813C98.678 39.7889 98.1945 40.0212 97.6826 40.0212H85.5347C85.0797 40.0212 84.6626 39.8363 84.3545 39.5282L84.364 39.533ZM77.9275 23.0388C81.8425 26.9538 84.7953 31.5418 86.7197 36.6892H95.5071C93.2984 29.3331 89.2839 22.6122 83.819 17.1473C78.3541 11.6824 71.6332 7.66786 64.2818 5.46389V14.2513C69.4292 16.1709 74.0172 19.1238 77.9322 23.0435L77.9275 23.0388Z" fill="white"/>
        <path id="Vector_3" d="M15.4909 85.4797C9.09225 79.0811 4.54685 71.0709 2.3571 62.3214C2.23386 61.8238 2.34762 61.2976 2.66045 60.8948C2.97801 60.4871 3.46144 60.2549 3.97333 60.2549H16.1212C16.8369 60.2549 17.4721 60.7099 17.6996 61.3877C19.4296 66.5066 22.2544 71.0425 26.0936 74.8817C29.928 78.7161 34.4687 81.541 39.5876 83.2757C40.2654 83.5032 40.7204 84.1383 40.7204 84.854V97.0019C40.7204 97.5138 40.4834 97.9973 40.0805 98.3148C39.6729 98.6324 39.1468 98.7414 38.6491 98.6182C29.8996 96.4284 21.8942 91.8878 15.4909 85.4892V85.4797ZM6.15836 63.5822C8.36707 70.9382 12.3816 77.6591 17.8465 83.124C23.3114 88.5889 30.0323 92.6035 37.3884 94.8122V86.0247C32.241 84.1051 27.653 81.1523 23.738 77.2373C19.823 73.3223 16.8701 68.7343 14.9458 63.5869H6.15836V63.5822Z" fill="white"/>
        <path id="Vector_4" d="M61.4411 98.1728C61.1283 97.86 60.9529 97.4382 60.9529 96.9926V84.8447C60.9529 84.129 61.4079 83.4939 62.0857 83.2664C67.2046 81.5364 71.7405 78.7115 75.5796 74.8724C79.4188 71.0332 82.2389 66.4973 83.9737 61.3784C84.2012 60.7006 84.8363 60.2456 85.552 60.2456H97.6999C98.2118 60.2456 98.6953 60.4826 99.0128 60.8855C99.3304 61.2883 99.4394 61.8192 99.3162 62.3121C97.1217 71.0616 92.581 79.067 86.1824 85.4704C79.7838 91.8737 71.7737 96.4144 63.0241 98.6041C62.5265 98.7274 62.0004 98.6136 61.5975 98.3008C61.5453 98.2534 61.4932 98.2108 61.4458 98.1634L61.4411 98.1728ZM64.2849 86.0202V94.8076C71.641 92.5989 78.3619 88.5844 83.8268 83.1195C89.2917 77.6546 93.3015 70.9337 95.5149 63.5776H86.7275C84.8079 68.7249 81.855 73.3082 77.9353 77.228C74.0203 81.143 69.4323 84.1006 64.2849 86.0202Z" fill="white"/>
        <path id="Vector_5" d="M2.79389 39.533C2.74649 39.4856 2.69911 39.4334 2.66119 39.3813C2.34363 38.9784 2.23461 38.4476 2.35784 37.9499C4.54759 29.2004 9.08825 21.1903 15.4916 14.7916C21.895 8.39302 29.9003 3.84763 38.6498 1.65788C39.1475 1.53465 39.6736 1.64839 40.0765 1.96122C40.4794 2.27878 40.7164 2.76224 40.7164 3.27413V15.422C40.7164 16.1377 40.2614 16.7728 39.5836 17.0003C34.4647 18.7303 29.9288 21.5552 26.0896 25.3944C22.2552 29.2288 19.4303 33.7695 17.6956 38.8884C17.4681 39.5661 16.833 40.0212 16.1173 40.0212H3.96936C3.52382 40.0212 3.09723 39.8458 2.78914 39.5377L2.79389 39.533ZM37.3844 5.46387C30.0283 7.67258 23.3074 11.6871 17.8425 17.152C12.3776 22.6169 8.36781 29.3378 6.15436 36.6939H14.9418C16.8614 31.5466 19.8142 26.9632 23.734 23.0435C27.649 19.1285 32.237 16.1756 37.3844 14.2513V5.46387Z" fill="white"/>
        </g>
        <path id="Vector_6" d="M77.9316 23.0387C62.9921 8.09915 38.6773 8.09441 23.7377 23.0387C8.79339 37.9831 8.79813 62.2931 23.7377 77.2327C38.6773 92.1723 62.9873 92.177 77.9316 77.2327C92.876 62.2884 92.8712 37.9783 77.9316 23.0387Z" fill="white"/>
        <g id="Group_3">
        <path id="Vector_7" d="M64.6544 63.8133L37.1268 63.9958C35.9672 64.0035 35.0333 64.9498 35.041 66.1094L35.0475 67.0905C35.0552 68.2501 36.0015 69.1839 37.1611 69.1762L64.6888 68.9937C65.8484 68.986 66.7822 68.0397 66.7745 66.8801L66.768 65.899C66.7603 64.7394 65.814 63.8056 64.6544 63.8133Z" fill="#110A1D"/>
        <path id="Vector_8" d="M40.8773 47.1973C40.5787 47.1973 40.2754 47.1309 40.0005 46.9982L37.8534 45.9602C36.9197 45.5052 36.4931 44.4008 36.8817 43.4387L37.8676 40.9835C38.171 40.2346 38.8867 39.7464 39.6924 39.7417C40.0384 39.7417 40.3797 39.827 40.683 40.0024L43.2425 41.4622C43.7212 41.7324 44.0672 42.2016 44.1904 42.7419C44.3136 43.2823 44.2046 43.851 43.8918 44.3061L42.4889 46.3394C42.1239 46.8702 41.5172 47.1925 40.8726 47.1925L40.8773 47.1973Z" fill="#110A1D"/>
        <path id="Vector_9" d="M60.6922 47.0645C60.0476 47.0645 59.4362 46.7565 59.0665 46.2304L57.6777 44.2729C57.3554 43.8226 57.2417 43.2538 57.3555 42.7135C57.4692 42.1732 57.8105 41.6992 58.2892 41.4195L60.9292 39.8697C61.2278 39.6943 61.5691 39.5995 61.9151 39.5948C62.7208 39.59 63.446 40.0687 63.7588 40.8129L64.7542 43.1969C65.1523 44.1544 64.7399 45.2682 63.8157 45.7327L61.5691 46.856C61.2989 46.9887 60.9955 47.0645 60.6969 47.0645H60.6922Z" fill="#110A1D"/>
        <path id="Vector_10" d="M38.7148 62.1557C37.5061 62.1651 36.4208 61.4068 36.0084 60.2693L31.4156 47.6284C31.1218 47.7706 30.8089 47.8796 30.4914 47.9602C30.1169 48.055 29.7377 48.1024 29.3538 48.1024C29.1311 48.1024 28.913 48.0929 28.6997 48.0645C26.3062 47.7611 24.4909 45.7088 24.4767 43.2916C24.4577 40.6184 26.619 38.4286 29.2922 38.4097C31.9654 38.3907 34.1552 40.552 34.1694 43.2252C34.1694 43.8414 34.0651 44.4339 33.8471 44.9884C33.7286 45.2918 33.5817 45.5809 33.411 45.8558L42.1463 50.0836L48.8294 40.4004C48.5497 40.2819 48.2795 40.1349 48.0236 39.9596C47.5401 39.6325 47.1183 39.2249 46.777 38.7462C46.1988 37.931 45.886 36.9688 45.8812 35.9735C45.8623 33.3003 48.0236 31.1105 50.6968 31.0916C50.8153 31.0916 50.9385 31.0915 51.057 31.101C53.4506 31.2622 55.3844 33.1818 55.5597 35.5753C55.6403 36.7081 55.3417 37.7935 54.6971 38.7178C54.3559 39.2012 53.9387 39.6136 53.46 39.9406C53.2088 40.116 52.9387 40.2629 52.659 40.3814L59.4605 49.9651L68.0536 45.6662C67.8925 45.3581 67.7645 45.0358 67.6697 44.6993C67.556 44.2917 67.4944 43.8651 67.4944 43.4338C67.4944 43.2394 67.5038 43.0451 67.5228 42.8555C67.7977 40.4193 69.8547 38.5708 72.3051 38.5566C74.9783 38.5377 77.1681 40.699 77.1823 43.3722C77.2013 45.9221 75.2201 48.0645 72.6749 48.2398L72.3715 48.2493C71.8786 48.2493 71.3952 48.183 70.9259 48.0408C70.6226 47.946 70.3287 47.8275 70.0538 47.6758L65.7406 60.0702C65.3473 61.2125 64.2666 61.9803 63.0579 61.9898L38.7148 62.1509V62.1557Z" fill="#110A1D"/>
        </g>
        </g>
        </g>
    </symbol>

    <symbol id="world" viewBox="0 0 100 221">
        <g id="World">
        <g id="Group">
        <path id="Vector" d="M0.546753 50.4613C0.546753 23.1386 22.7796 0.905762 50.1023 0.905762C77.425 0.905762 99.6578 23.1386 99.6578 50.4613C99.6578 77.7839 77.425 100.017 50.1023 100.017C22.7796 100.017 0.546753 77.7839 0.546753 50.4613ZM96.0877 50.4613C96.0877 25.1058 75.4577 4.47592 50.1023 4.47592C24.7469 4.47592 4.11697 25.1058 4.11697 50.4613C4.11697 75.8167 24.7469 96.4466 50.1023 96.4466C75.4577 96.4466 96.0877 75.8167 96.0877 50.4613Z" fill="#478BF9"/>
        <path id="Vector_2" d="M0.544089 171.607C0.544089 170.618 1.34558 169.827 2.32399 169.827C3.3024 169.827 4.10389 170.629 4.10389 171.607C4.10389 196.963 24.7338 217.593 50.0892 217.593C75.4447 217.593 96.0746 196.963 96.0746 171.607C96.0746 170.618 96.8761 169.827 97.8545 169.827C98.8329 169.827 99.6343 170.629 99.6343 171.607C99.6343 198.93 77.4015 221.163 50.0788 221.163C22.7561 221.163 0.523315 198.93 0.523315 171.607H0.544089Z" fill="#478BF9"/>
        <g id="Group_2">
        <path id="Vector_3" d="M98.1434 49.2644H76.4414V53.5423H98.1434V49.2644Z" fill="#478BF9"/>
        <path id="Vector_4" d="M23.4207 49.2644H1.71863V53.5423H23.4207V49.2644Z" fill="#478BF9"/>
        <path id="Vector_5" d="M52.4107 78.2419H48.1328V99.944H52.4107V78.2419Z" fill="#478BF9"/>
        <path id="Vector_6" d="M52.4107 2.86255H48.1328V24.5645H52.4107V2.86255Z" fill="#478BF9"/>
        <path id="Vector_7" d="M75.7858 24.2522C60.9431 9.40944 36.8678 9.40944 22.0147 24.2522C7.17201 39.0949 7.17201 63.1701 22.0147 78.0232C36.8574 92.8659 60.9326 92.8659 75.7858 78.0232C90.6285 63.1805 90.6285 39.1053 75.7858 24.2522ZM56.2487 27.4684C60.5787 28.8112 64.4611 31.3196 67.4796 34.7337L68.0625 35.3894L67.2091 35.5872C64.9504 36.118 62.5356 36.5552 60.0375 36.8778L59.5899 36.9403L59.465 36.5031C59.0487 35.0772 58.5595 33.7032 57.9974 32.4333C57.3 30.8408 56.5194 29.446 55.6659 28.2699L54.7291 26.9896L56.2487 27.458V27.4684ZM38.8767 49.9511L38.8976 49.4098C39.0017 46.1207 39.3659 42.9773 39.9905 40.0837L40.0842 39.6257L40.5525 39.6673C46.0274 40.1461 51.8771 40.1253 57.3209 39.6153L57.7892 39.5737L57.8933 40.0317C58.5283 42.9565 58.8925 46.1103 58.9862 49.4098V49.9511H38.8871H38.8767ZM58.9862 52.3659V52.9072C58.8717 56.2067 58.5074 59.3605 57.8725 62.2853L57.7684 62.7433L57.3 62.7017C51.8563 62.1916 46.0067 62.1812 40.5317 62.6496L40.0633 62.6912L39.9696 62.2333C39.3451 59.3396 38.9808 56.2067 38.8767 52.9072L38.8559 52.3659H58.9654H58.9862ZM48.9315 26.5629C51.9604 26.5629 55.0413 30.4036 56.9669 36.5968L57.1647 37.2213L56.509 37.2734C53.9484 37.4919 51.3047 37.6064 48.6505 37.6064C46.1836 37.6064 43.7271 37.5127 41.3331 37.315L40.6774 37.2629L40.8752 36.628C42.8008 30.4141 45.8922 26.5525 48.9315 26.5525V26.5629ZM30.2792 34.8481C33.3185 31.3821 37.2322 28.832 41.6142 27.4789L43.1443 27.0105L42.1971 28.3011C41.3436 29.4669 40.5525 30.872 39.8656 32.4542C39.3139 33.7032 38.8143 35.0979 38.3771 36.5968L38.2522 37.0236L37.8047 36.9715C35.2858 36.6593 32.8501 36.2429 30.5602 35.7121L29.6963 35.5143L30.2792 34.8481ZM24.2006 49.389C24.492 45.3297 25.7931 41.3744 27.9685 37.9291L28.1767 37.6064L28.5514 37.7001C31.216 38.3767 34.0887 38.9179 37.1072 39.3031L37.6694 39.3759L37.5548 39.938C36.9303 42.9565 36.5764 46.1519 36.4828 49.4411V49.9511H24.1693L24.211 49.389H24.2006ZM28.1767 64.7105L27.9685 64.3878C25.7931 60.953 24.492 56.9873 24.2006 52.9279L24.1589 52.3659H36.4619V52.8759C36.566 56.165 36.9303 59.3709 37.5445 62.379L37.6589 62.941L37.0968 63.0139C34.0887 63.399 31.2056 63.9403 28.541 64.6169L28.1663 64.7105H28.1767ZM41.6142 74.8485C37.2322 73.4954 33.3185 70.9453 30.2792 67.4792L29.6963 66.8131L30.5602 66.6153C32.8501 66.0949 35.2858 65.6681 37.8047 65.3558L38.2522 65.3038L38.3771 65.7306C38.8143 67.2294 39.3139 68.6242 39.8656 69.8732C40.5629 71.4657 41.3436 72.8605 42.1971 74.0367L43.1443 75.3273L41.6142 74.8589V74.8485ZM48.9315 75.7541C45.8922 75.7541 42.8008 71.8925 40.8752 65.6785L40.6774 65.0436L41.3331 64.9916C46.2981 64.596 51.5857 64.6064 56.509 65.0332L57.1647 65.0852L56.9669 65.7098C55.0309 71.8925 51.95 75.7437 48.9315 75.7437V75.7541ZM67.4796 67.5833C64.4611 70.9973 60.5683 73.5058 56.2487 74.8485L54.7291 75.3169L55.6659 74.0367C56.5194 72.8709 57.3 71.4657 57.9974 69.8732C58.549 68.593 59.0487 67.2294 59.465 65.8034L59.5899 65.3663L60.0375 65.4287C62.5356 65.7514 64.9504 66.1885 67.2091 66.7194L68.0625 66.9276L67.4796 67.5833ZM73.652 52.9279C73.3606 57.0289 72.0387 61.0363 69.8112 64.5127L69.603 64.8354L69.2283 64.7418C66.595 64.0444 63.7325 63.4927 60.7349 63.0868L60.1728 63.0139L60.2873 62.4623C60.9118 59.4438 61.2761 56.2275 61.3698 52.8863V52.3763H73.6832L73.6416 52.9383L73.652 52.9279ZM61.3906 49.9511V49.4411C61.2865 46.0999 60.9222 42.8732 60.2977 39.8651L60.1832 39.3135L60.7453 39.2406C63.743 38.8347 66.5949 38.283 69.2387 37.5856L69.6135 37.492L69.8216 37.8146C72.049 41.2911 73.3813 45.288 73.6624 49.3994L73.704 49.9615H61.401L61.3906 49.9511Z" fill="#478BF9"/>
        </g>
        </g>
        <g id="Group_3">
        <path id="Vector_8" d="M0.484375 172.357V52.7616C0.484375 51.7728 1.28586 50.9817 2.26427 50.9817C3.24269 50.9817 4.04417 51.7832 4.04417 52.7616V172.357C4.04417 173.346 3.24269 174.137 2.26427 174.137C1.28586 174.137 0.484375 173.335 0.484375 172.357Z" fill="#478BF9"/>
        </g>
        <g id="Group_4">
        <path id="Vector_9" d="M96.0352 172.628V53.0323C96.0352 52.0435 96.8366 51.2524 97.815 51.2524C98.7934 51.2524 99.5949 52.0539 99.5949 53.0323V172.628C99.5949 173.616 98.7934 174.407 97.815 174.407C96.8366 174.407 96.0352 173.606 96.0352 172.628Z" fill="#478BF9"/>
        </g>
        </g>
    </symbol>

    <symbol id="shield" viewBox="0 0 100 100">
        <g id="Shield">
        <path id="Vector" d="M49.7325 100C37.0339 100 24.3458 95.1705 14.6762 85.5009C-4.65264 66.1721 -4.65264 34.7276 14.6762 15.3987C24.044 6.03095 36.4927 0.878662 49.7325 0.878662C62.9722 0.878662 75.421 6.03095 84.7888 15.3987C104.118 34.7276 104.118 66.1721 84.7888 85.5009C75.1296 95.1601 62.431 100 49.7325 100ZM17.2784 82.8988C35.1708 100.791 64.2838 100.791 82.1762 82.8988C100.069 65.0063 100.069 35.8933 82.1762 18.0009C73.5058 9.33049 61.9835 4.56336 49.7221 4.56336C37.4607 4.56336 25.9383 9.3409 17.2679 18.0009C-0.624513 35.8933 -0.624513 65.0063 17.2679 82.8988H17.2784Z" fill="#9DADF2"/>
        <g id="Group">
        <path id="Vector_2" d="M49.0769 68.9929C49.2538 69.4196 49.6701 69.6693 50.1073 69.6693C50.253 69.6693 50.3987 69.6382 50.5445 69.5861C54.0418 68.1185 57.2268 65.8493 59.7457 63.0182C60.1517 62.5602 60.11 61.8525 59.652 61.4466C59.194 61.0407 58.4862 61.0823 58.0803 61.5403C55.78 64.132 52.876 66.2033 49.6805 67.5356C49.1185 67.775 48.8478 68.4308 49.0872 68.9929H49.0769Z" fill="#9DADF2"/>
        <path id="Vector_3" d="M68.6225 33.312L50.1368 25.9218C49.8661 25.8177 49.5747 25.8177 49.3041 25.9218L30.8183 33.312C30.3916 33.4785 30.121 33.8844 30.121 34.3424V47.5822C30.1418 59.8019 37.865 70.8455 49.3353 75.0506C49.4602 75.0922 49.5851 75.1131 49.7204 75.1131C49.8558 75.1131 49.9807 75.0922 50.1056 75.0506C61.5759 70.8351 69.299 59.8019 69.3199 47.5822V34.3424C69.3199 33.8844 69.0493 33.4785 68.6225 33.312ZM67.0925 47.5822C67.0716 58.6986 60.0978 68.8262 49.7308 72.8127C39.3638 68.8262 32.3796 58.6986 32.3588 47.5822V35.1022L49.7308 28.1597L67.0925 35.1022V47.5822Z" fill="#9DADF2"/>
        <path id="Vector_4" d="M42.0083 35.0502C41.7376 34.9357 41.4358 34.9357 41.1548 35.0502L36.7519 36.8094C36.3252 36.9759 36.0546 37.3818 36.0546 37.8398V42.5341C36.0546 43.1482 36.5542 43.6478 37.1683 43.6478C37.7824 43.6478 38.282 43.1482 38.282 42.5341V38.5996L41.9771 37.1217C42.2581 37.0072 42.4663 36.7989 42.5912 36.5179C42.7056 36.2473 42.7056 35.9455 42.5912 35.6644C42.4767 35.3834 42.2685 35.1751 41.9979 35.0502H42.0083Z" fill="#9DADF2"/>
        <path id="Vector_5" d="M77.8876 22.2998C70.3726 14.7743 60.3698 10.6421 49.7322 10.6421C39.0946 10.6421 29.1023 14.7847 21.5768 22.2998C6.05756 37.819 6.05756 63.0808 21.5768 78.6105C29.3417 86.3754 39.5317 90.2473 49.7322 90.2473C59.9326 90.2473 70.1227 86.365 77.8876 78.6105C93.4069 63.0913 93.4069 37.8295 77.8876 22.2998ZM72.3814 47.5823C72.4126 61.7068 63.3883 74.0619 49.9299 78.3399C49.805 78.3815 49.6697 78.3815 49.5344 78.3399C36.076 74.0619 27.0518 61.7068 27.083 47.5823V31.959C27.083 31.6987 27.2391 31.4594 27.4889 31.3553L49.4928 22.56C49.5657 22.5288 49.6489 22.5184 49.7322 22.5184C49.8154 22.5184 49.8988 22.5288 49.9716 22.56L71.9755 31.3657C72.2253 31.4594 72.3814 31.6987 72.3814 31.9694V47.5927V47.5823Z" fill="#9DADF2"/>
        </g>
        </g>
    </symbol>

     <symbol id="dollar" viewBox="0 0 100 221">
        <path d="M99.1109 171.285C99.1109 198.608 76.878 220.841 49.5554 220.841C22.2327 220.841 -0.00012207 198.608 -0.00012207 171.285C-0.00012207 143.963 22.2327 121.73 49.5554 121.73C76.878 121.73 99.1109 143.963 99.1109 171.285ZM3.57003 171.285C3.57003 196.641 24.1999 217.271 49.5554 217.271C74.9108 217.271 95.5407 196.641 95.5407 171.285C95.5407 145.93 74.9108 125.3 49.5554 125.3C24.1999 125.3 3.57003 145.93 3.57003 171.285Z" fill="#478BF9"/>
        <path d="M99.1135 50.1495C99.1135 51.1383 98.312 51.9294 97.3336 51.9294C96.3552 51.9294 95.5537 51.1279 95.5537 50.1495C95.5537 24.7941 74.9238 4.16415 49.5684 4.16415C24.213 4.16415 3.58305 24.7941 3.58305 50.1495C3.58305 51.1383 2.78156 51.9294 1.80315 51.9294C0.82474 51.9294 0.0233154 51.1279 0.0233154 50.1495C0.0233154 22.8268 22.2561 0.593994 49.5788 0.593994C76.9015 0.593994 99.1343 22.8268 99.1343 50.1495H99.1135Z" fill="#478BF9"/>
        <path d="M40.0118 162.532C40.0118 164.353 41.2505 165.935 43.02 166.372L46.3819 167.215V158.566H43.9879C41.8021 158.566 40.0223 160.346 40.0223 162.532H40.0118Z" fill="#478BF9"/>
        <path d="M52.7292 184.005H55.1233C57.3091 184.005 59.089 182.225 59.089 180.039C59.089 178.217 57.8503 176.635 56.0808 176.198L52.7189 175.355V184.005H52.7292Z" fill="#478BF9"/>
        <path d="M49.5562 130.962C27.3234 130.962 9.22278 149.052 9.22278 171.296C9.22278 193.539 27.313 211.629 49.5562 211.629C71.7995 211.629 89.8897 193.539 89.8897 171.296C89.8897 149.052 71.7995 130.962 49.5562 130.962ZM65.4607 164.926H59.1009V161.74C59.1009 159.992 57.675 158.555 55.9159 158.555H52.7309V168.798L57.6334 170.026C62.234 171.181 65.4502 175.293 65.4502 180.039C65.4502 185.732 60.8184 190.364 55.1249 190.364H52.7309V198.421H46.3712V190.364H43.1862C37.9194 190.364 33.6415 186.086 33.6415 180.82V177.635H40.0011V180.82C40.0011 182.568 41.4271 184.005 43.1862 184.005H46.3712V173.762L41.4687 172.534C36.8681 171.379 33.6519 167.267 33.6519 162.521C33.6519 156.828 38.2837 152.196 43.9772 152.196H46.3712V144.14H52.7309V152.196H55.9159C61.1827 152.196 65.4607 156.474 65.4607 161.74V164.926Z" fill="#478BF9"/>
        <path d="M99.1729 49.3897V168.985C99.1729 169.974 98.3715 170.765 97.3931 170.765C96.4146 170.765 95.6132 169.963 95.6132 168.985V49.3897C95.6132 48.4009 96.4146 47.6099 97.3931 47.6099C98.3715 47.6099 99.1729 48.4113 99.1729 49.3897Z" fill="#478BF9"/>
        <path d="M3.63774 49.1294V168.725C3.63774 169.714 2.83625 170.505 1.85784 170.505C0.879427 170.505 0.0780029 169.703 0.0780029 168.725V49.1294C0.0780029 48.1406 0.879427 47.3496 1.85784 47.3496C2.83625 47.3496 3.63774 48.151 3.63774 49.1294Z" fill="#478BF9"/>
    </symbol>

     <symbol id="soccer" viewBox="0 0 100 100">
        <g id="Soccer">
        <path id="Vector" d="M50.1272 99.3893C22.8045 99.3893 0.582031 77.1564 0.582031 49.8442C0.582031 22.5319 22.8149 0.299072 50.1272 0.299072C77.4394 0.299072 99.6723 22.5319 99.6723 49.8442C99.6723 77.1564 77.4394 99.3893 50.1272 99.3893ZM50.1272 3.59859C24.626 3.59859 3.88161 24.343 3.88161 49.8442C3.88161 75.3453 24.626 96.0897 50.1272 96.0897C75.6283 96.0897 96.3727 75.3453 96.3727 49.8442C96.3727 24.343 75.6283 3.59859 50.1272 3.59859Z" fill="white"/>
        <g id="Group">
        <path id="Vector_2" d="M66.1977 18.8995C65.9479 18.8995 65.698 18.8474 65.4691 18.733C60.6707 16.3598 55.508 15.1524 50.1267 15.1524C44.7455 15.1524 39.5828 16.3598 34.7844 18.733C34.1495 19.0452 33.3897 18.9203 32.89 18.4206L24.3758 9.90639C24.0115 9.54208 23.8449 9.04246 23.9074 8.53244C23.9698 8.02242 24.2613 7.57486 24.6985 7.31465C32.3696 2.71403 41.1649 0.288818 50.1372 0.288818C59.1094 0.288818 67.9047 2.72444 75.5759 7.31465C76.013 7.57486 76.3044 8.02242 76.3669 8.53244C76.4293 9.04246 76.2524 9.54208 75.8985 9.90639L67.3842 18.4206C67.0615 18.7329 66.6453 18.8995 66.2081 18.8995H66.1977ZM50.1267 11.8528C55.6121 11.8528 60.8997 12.9978 65.8542 15.2564L72.0161 9.09455C65.3129 5.48275 57.7875 3.58834 50.1267 3.58834C42.466 3.58834 34.9405 5.48275 28.2373 9.09455L34.3993 15.2564C39.3538 12.9978 44.6414 11.8528 50.1267 11.8528Z" fill="white"/>
        <path id="Vector_3" d="M50.1249 99.3893C41.1527 99.3893 32.3574 96.9537 24.6862 92.3635C24.2491 92.1032 23.9576 91.6556 23.8952 91.1456C23.8327 90.6356 24.0097 90.136 24.3636 89.7717L32.8778 81.2574C33.3774 80.7578 34.1477 80.6329 34.7722 80.9451C39.5706 83.3183 44.7333 84.5257 50.1145 84.5257C55.4958 84.5257 60.6585 83.3183 65.4569 80.9451C66.0918 80.6329 66.8516 80.7578 67.3512 81.2574L75.8655 89.7717C76.2298 90.136 76.3963 90.6356 76.3339 91.1456C76.2714 91.6556 75.98 92.1032 75.5428 92.3635C67.8717 96.9641 59.0764 99.3893 50.1041 99.3893H50.1249ZM28.2356 90.5836C34.9387 94.1954 42.4642 96.0897 50.1249 96.0897C57.7857 96.0897 65.3111 94.1954 72.0143 90.5836L65.8524 84.4217C60.8979 86.6803 55.6103 87.8252 50.1249 87.8252C44.6396 87.8252 39.352 86.6803 34.3975 84.4217L28.2356 90.5836Z" fill="white"/>
        <path id="Vector_4" d="M91.2328 76.074C90.7957 76.074 90.3793 75.9075 90.0671 75.5952L81.5528 67.081C81.0532 66.5814 80.9283 65.8111 81.2406 65.1866C83.6137 60.3882 84.8211 55.2255 84.8211 49.8443C84.8211 44.463 83.6137 39.3003 81.2406 34.502C80.9283 33.867 81.0532 33.0968 81.5528 32.6076L90.0671 24.0933C90.4314 23.729 90.931 23.5625 91.441 23.6249C91.951 23.6874 92.3986 23.9788 92.6588 24.416C97.2594 32.0871 99.6846 40.8824 99.6846 49.8547C99.6846 58.8269 97.2594 67.6222 92.6588 75.2934C92.3986 75.7306 91.951 76.022 91.441 76.0845C91.3681 76.0845 91.3057 76.0845 91.2328 76.0845V76.074ZM84.7066 65.5613L90.8685 71.7232C94.4803 65.0201 96.3747 57.4946 96.3747 49.8339C96.3747 42.1731 94.4803 34.6477 90.8685 27.9445L84.7066 34.1064C86.9653 39.0609 88.1102 44.3485 88.1102 49.8339C88.1102 55.3192 86.9653 60.6068 84.7066 65.5613Z" fill="white"/>
        <path id="Vector_5" d="M9.02348 76.0741C8.95062 76.0741 8.88817 76.0741 8.82572 76.0636C8.31569 76.0012 7.86808 75.7097 7.60786 75.2726C3.00724 67.6014 0.582031 58.8061 0.582031 49.8339C0.582031 40.8616 3.00724 32.0664 7.60786 24.3952C7.86808 23.9581 8.31569 23.6666 8.82572 23.6042C9.33574 23.5417 9.83536 23.7186 10.1997 24.0725L18.7139 32.5868C19.2135 33.0864 19.3384 33.8566 19.0262 34.4811C16.653 39.2795 15.4456 44.4423 15.4456 49.8235C15.4456 55.2048 16.653 60.3675 19.0262 65.1658C19.3384 65.8008 19.2135 66.571 18.7139 67.0602L10.1997 75.5745C9.88741 75.8867 9.471 76.0636 9.03384 76.0636L9.02348 76.0741ZM9.38776 27.9445C5.77596 34.6477 3.88161 42.1731 3.88161 49.8339C3.88161 57.4946 5.77596 65.0201 9.38776 71.7233L15.5497 65.5614C13.291 60.6069 12.1461 55.3192 12.1461 49.8339C12.1461 44.3485 13.291 39.0609 15.5497 34.1064L9.38776 27.9445Z" fill="white"/>
        </g>
        <path id="Vector_6" d="M50.1282 11.8528C29.1861 11.8528 12.1367 28.8917 12.1367 49.8443C12.1367 70.7969 29.1757 87.8358 50.1282 87.8358C71.0808 87.8358 88.1198 70.7969 88.1198 49.8443C88.1198 28.8917 71.0808 11.8528 50.1282 11.8528ZM71.5075 37.3644C73.3082 40.4453 74.4011 43.8073 74.755 47.3775C74.7654 47.5232 74.703 47.6585 74.5781 47.7314C71.8615 49.3968 69.4258 51.4368 67.3233 53.8204C67.2296 53.9349 67.0735 53.9766 66.9381 53.9245L62.2439 52.3944C62.1086 52.3528 62.0149 52.2383 61.994 52.0926C61.4632 48.2102 60.2559 44.4943 58.4031 41.0386C58.3407 40.9137 58.351 40.768 58.4343 40.6535L61.3383 36.6566C61.4112 36.5629 61.5257 36.5004 61.6402 36.5004C61.6714 36.5004 61.6922 36.5004 61.7235 36.5004C64.8252 37.1874 68.0102 37.4164 71.1745 37.1562C71.3202 37.1458 71.4555 37.2186 71.5284 37.3435L71.5075 37.3644ZM59.4336 52.7484C59.444 52.8524 59.4127 52.9565 59.3503 53.0293C56.8834 55.8709 53.74 58.1504 50.274 59.6076C50.1803 59.6492 50.0866 59.6492 49.9929 59.6076C46.5268 58.14 43.3834 55.8605 40.9166 53.0293C40.8541 52.9565 40.8229 52.8524 40.8333 52.7484C41.3121 48.9804 42.4883 45.379 44.3098 42.0482C44.3618 41.9546 44.4451 41.8921 44.5492 41.8713C46.3811 41.4862 48.2547 41.2884 50.1387 41.2884C52.0226 41.2884 53.8962 41.4862 55.7281 41.8713C55.8322 41.8921 55.9154 41.9546 55.9675 42.0482C57.789 45.379 58.9548 48.9804 59.444 52.7484H59.4336ZM58.8715 26.9141C58.8715 26.9141 58.9964 26.81 59.1213 26.81C59.1629 26.81 59.2149 26.81 59.267 26.8412C63.0974 28.3609 66.5218 30.859 69.1864 34.0544C69.3218 34.2105 69.2697 34.3771 69.2385 34.4395C69.2177 34.4916 69.124 34.6581 68.9054 34.6581C66.5426 34.6894 64.1903 34.4187 61.9108 33.8775C61.8171 33.8567 61.7338 33.7942 61.6818 33.7109C60.464 31.7021 59.4856 29.5371 58.7778 27.2888C58.7154 27.091 58.8298 26.9557 58.8819 26.9141H58.8715ZM44.8719 25.6651C48.3171 24.926 51.9497 24.926 55.395 25.6651C55.5303 25.6963 55.6448 25.8004 55.676 25.9357C56.415 29.0271 57.612 31.9831 59.2254 34.7206C59.2982 34.8455 59.2878 35.0016 59.2045 35.1265L56.3214 39.1026C56.2381 39.2171 56.0924 39.2795 55.957 39.2483C52.1475 38.4781 48.1193 38.4781 44.3098 39.2483C44.1745 39.2795 44.0288 39.2171 43.9455 39.1026L41.0623 35.1265C40.979 35.012 40.9686 34.8455 41.0415 34.7206C42.6548 31.9831 43.8518 29.0271 44.5908 25.9357C44.6221 25.8004 44.7366 25.6963 44.8719 25.6651ZM31.0804 34.0544C33.7451 30.8486 37.1695 28.3505 40.9998 26.8412C41.0519 26.8204 41.1039 26.81 41.1456 26.81C41.2809 26.81 41.3642 26.8829 41.3954 26.9141C41.4474 26.9662 41.5619 27.091 41.4994 27.2888C40.7917 29.5475 39.8133 31.7021 38.5955 33.7109C38.5434 33.7942 38.4602 33.8567 38.3665 33.8775C36.087 34.4187 33.7346 34.6894 31.3719 34.6581C31.1533 34.6581 31.0596 34.4916 31.0388 34.4395C31.0075 34.3771 30.9555 34.2105 31.0908 34.0544H31.0804ZM28.7593 37.3644C28.8217 37.2499 28.9466 37.177 29.0819 37.177C29.0819 37.177 29.1028 37.177 29.1132 37.177C32.2878 37.4268 35.4729 37.2082 38.5643 36.5213C38.71 36.49 38.8557 36.5421 38.939 36.667L41.8429 40.6639C41.9262 40.7784 41.9366 40.9346 41.8742 41.0491C40.0215 44.5047 38.814 48.2206 38.2832 52.103C38.2624 52.2383 38.1687 52.3528 38.0334 52.4049L33.3391 53.9349C33.2038 53.9765 33.0477 53.9349 32.954 53.8308C30.8514 51.4473 28.4158 49.4072 25.6991 47.7418C25.5846 47.6689 25.5118 47.5336 25.5222 47.3879C25.8761 43.8177 26.969 40.4453 28.7697 37.3748L28.7593 37.3644ZM29.8938 63.0112C29.8314 63.209 29.6545 63.2506 29.5816 63.261C29.5087 63.261 29.3422 63.2611 29.2277 63.0945C27.0106 59.6076 25.6991 55.5691 25.4389 51.4264C25.4285 51.2183 25.5638 51.1142 25.6263 51.0829C25.6887 51.0517 25.8553 50.9789 26.0218 51.1038C27.9474 52.4673 29.6961 54.0702 31.2261 55.8501C31.2886 55.923 31.3198 56.0167 31.3094 56.1207C31.1221 58.4627 30.6433 60.7838 29.8834 63.0217L29.8938 63.0112ZM40.1776 72.5143C36.9301 71.0884 34.0677 68.9962 31.6737 66.3108C31.58 66.2067 31.5488 66.0506 31.6009 65.9257C32.8187 62.9904 33.5889 59.899 33.8907 56.7348C33.9011 56.5891 34.0053 56.4642 34.1406 56.4226L38.7828 54.9133C38.7828 54.9133 38.8556 54.8925 38.8973 54.8925C39.0014 54.8925 39.0951 54.9342 39.1679 55.0174C41.7701 57.9318 45.028 60.305 48.5981 61.8767C48.7334 61.9391 48.8167 62.064 48.8167 62.2098V67.0914C48.8167 67.2371 48.7334 67.3725 48.5981 67.4245C45.6837 68.6839 42.9775 70.3806 40.5523 72.4519C40.4482 72.5456 40.2921 72.5664 40.1672 72.5039L40.1776 72.5143ZM56.5503 73.5448C56.5399 73.6176 56.4879 73.7842 56.2797 73.8363C52.262 74.8563 48.0153 74.8563 43.9975 73.8363C43.7998 73.7842 43.7373 73.6176 43.7269 73.5448C43.7165 73.4719 43.6957 73.3054 43.8726 73.1701C45.767 71.7649 47.8279 70.5887 50.0033 69.6832C50.097 69.6415 50.1907 69.6415 50.2843 69.6832C52.4493 70.5887 54.5103 71.7649 56.415 73.1701C56.5816 73.295 56.5712 73.4719 56.5608 73.5448H56.5503ZM68.614 66.3212C66.22 69.0066 63.3576 71.0884 60.1101 72.5143C59.9748 72.5768 59.8291 72.5456 59.725 72.4623C57.2998 70.391 54.6039 68.6944 51.6791 67.4349C51.5438 67.3725 51.4605 67.2476 51.4605 67.1018V62.2202C51.4605 62.0745 51.5438 61.9391 51.6791 61.8871C55.2493 60.3154 58.5176 57.9423 61.1093 55.0278C61.1822 54.9446 61.2759 54.9029 61.38 54.9029C61.4216 54.9029 61.4528 54.9029 61.4944 54.9237L66.1367 56.433C66.272 56.4746 66.3761 56.5995 66.3865 56.7452C66.6884 59.9095 67.4586 62.9904 68.6764 65.9361C68.7285 66.061 68.7076 66.2171 68.6036 66.3212H68.614ZM71.0496 63.1049C70.9351 63.2818 70.7582 63.2819 70.6957 63.2715C70.6228 63.2715 70.4563 63.2194 70.3834 63.0217C69.634 60.7838 69.1552 58.4627 68.9574 56.1207C68.9574 56.0271 68.9783 55.923 69.0407 55.8501C70.5708 54.0702 72.3194 52.4777 74.245 51.1038C74.3179 51.0517 74.3908 51.0309 74.4532 51.0309C74.5365 51.0309 74.5989 51.0621 74.6406 51.0829C74.703 51.1142 74.8487 51.2183 74.8279 51.4264C74.5677 55.5691 73.2562 59.6076 71.0392 63.0945L71.0496 63.1049Z" fill="white"/>
        </g>
    </symbol>

     <symbol id="crown-big" viewBox="0 0 100 220">
        <g id="Crown">
        <g id="Group">
        <path id="Vector" d="M15.4881 155.26C-4.00158 135.77 -4.00158 104.061 15.4881 84.5716C34.9779 65.0819 66.6866 65.0819 86.1763 84.5716C105.666 104.061 105.666 135.77 86.1763 155.26C66.6866 174.75 34.9779 174.75 15.4881 155.26ZM83.8207 86.9273C65.6296 68.7362 36.0348 68.7362 17.8485 86.9273C-0.342528 105.118 -0.342528 134.713 17.8485 152.899C36.0396 171.09 65.6344 171.09 83.8207 152.899C102.012 134.708 102.012 105.114 83.8207 86.9273Z" fill="white"/>
        <g id="Group_2">
        <path id="Vector_2" d="M84.3638 109.313C84.1884 109.138 84.0462 108.915 83.9657 108.668C82.2357 103.55 79.4108 99.0136 75.5716 95.1744C71.7372 91.34 67.1965 88.5151 62.0776 86.7804C61.3998 86.5481 60.9448 85.9178 60.9448 85.2021V73.0542C60.9448 72.5423 61.1818 72.0588 61.5847 71.7413C61.9923 71.4237 62.5184 71.3147 63.0113 71.4379C71.7609 73.6277 79.771 78.1683 86.1696 84.5717C92.5682 90.975 97.1089 98.9804 99.2987 107.73C99.4219 108.228 99.3081 108.754 98.9953 109.161C98.6777 109.569 98.1943 109.801 97.6824 109.801H85.5345C85.0795 109.801 84.6624 109.616 84.3543 109.308L84.3638 109.313ZM77.9272 92.8188C81.8422 96.7338 84.7951 101.322 86.7194 106.469H95.5069C93.2982 99.1131 89.2836 92.3922 83.8187 86.9273C78.3538 81.4624 71.6329 77.4479 64.2816 75.2439V84.0314C69.4289 85.9509 74.017 88.9038 77.932 92.8235L77.9272 92.8188Z" fill="white"/>
        <path id="Vector_3" d="M15.4867 155.26C9.0881 148.861 4.5427 140.851 2.35295 132.101C2.22971 131.604 2.34347 131.078 2.6563 130.675C2.97386 130.267 3.45729 130.035 3.96918 130.035H16.1171C16.8328 130.035 17.4679 130.49 17.6954 131.168C19.4254 136.287 22.2503 140.823 26.0894 144.662C29.9239 148.496 34.4646 151.321 39.5835 153.056C40.2612 153.283 40.7162 153.918 40.7162 154.634V166.782C40.7162 167.294 40.4792 167.777 40.0764 168.095C39.6687 168.412 39.1426 168.521 38.645 168.398C29.8954 166.208 21.8901 161.668 15.4867 155.269V155.26ZM6.15421 133.362C8.36292 140.718 12.3774 147.439 17.8423 152.904C23.3072 158.369 30.0282 162.384 37.3842 164.592V155.805C32.2369 153.885 27.6488 150.932 23.7338 147.017C19.8188 143.102 16.866 138.514 14.9416 133.367H6.15421V133.362Z" fill="white"/>
        <path id="Vector_4" d="M61.433 167.953C61.1202 167.64 60.9448 167.218 60.9448 166.773V154.625C60.9448 153.909 61.3998 153.274 62.0776 153.046C67.1965 151.316 71.7324 148.492 75.5716 144.652C79.4108 140.813 82.2309 136.277 83.9656 131.158C84.1931 130.481 84.8283 130.026 85.544 130.026H97.6919C98.2038 130.026 98.6872 130.263 99.0048 130.665C99.3223 131.068 99.4314 131.599 99.3081 132.092C97.1136 140.842 92.573 148.847 86.1743 155.25C79.7757 161.654 71.7656 166.194 63.0161 168.384C62.5184 168.507 61.9923 168.394 61.5894 168.081C61.5373 168.033 61.4852 167.991 61.4378 167.943L61.433 167.953ZM64.2769 155.8V164.588C71.6329 162.379 78.3538 158.364 83.8187 152.9C89.2836 147.435 93.2934 140.714 95.5069 133.358H86.7194C84.7998 138.505 81.847 143.088 77.9272 147.008C74.0122 150.923 69.4242 153.881 64.2769 155.8Z" fill="white"/>
        <path id="Vector_5" d="M2.78974 109.313C2.74234 109.266 2.69496 109.213 2.65704 109.161C2.33948 108.758 2.23046 108.228 2.35369 107.73C4.54344 98.9804 9.0841 90.9703 15.4875 84.5717C21.8908 78.173 29.8962 73.6277 38.6457 71.4379C39.1434 71.3147 39.6695 71.4284 40.0724 71.7412C40.4752 72.0588 40.7123 72.5423 40.7123 73.0542V85.2021C40.7123 85.9178 40.2572 86.5529 39.5795 86.7804C34.4606 88.5104 29.9246 91.3352 26.0854 95.1744C22.251 99.0088 19.4262 103.549 17.6914 108.668C17.4639 109.346 16.8288 109.801 16.1131 109.801H3.96521C3.51967 109.801 3.09307 109.626 2.78499 109.318L2.78974 109.313ZM37.3802 75.2439C30.0242 77.4526 23.3032 81.4672 17.8383 86.9321C12.3734 92.3969 8.36366 99.1179 6.15021 106.474H14.9376C16.8572 101.327 19.8101 96.7433 23.7298 92.8235C27.6448 88.9085 32.2329 85.9557 37.3802 84.0313V75.2439Z" fill="white"/>
        </g>
        <path id="Vector_6" d="M77.9314 92.8188C62.9918 77.8792 38.6771 77.8744 23.7375 92.8188C8.79315 107.763 8.79789 132.073 23.7375 147.013C38.6771 161.952 62.9871 161.957 77.9314 147.013C92.8757 132.068 92.871 107.758 77.9314 92.8188Z" fill="white"/>
        <g id="Group_3">
        <path id="Vector_7" d="M64.6503 133.593L37.1226 133.776C35.963 133.784 35.0292 134.73 35.0369 135.889L35.0434 136.871C35.0511 138.03 35.9974 138.964 37.157 138.956L64.6846 138.774C65.8442 138.766 66.7781 137.82 66.7704 136.66L66.7639 135.679C66.7562 134.519 65.8099 133.586 64.6503 133.593Z" fill="#110A1D"/>
        <path id="Vector_8" d="M40.8732 116.977C40.5746 116.977 40.2713 116.911 39.9964 116.778L37.8492 115.74C36.9155 115.285 36.4889 114.181 36.8776 113.219L37.8635 110.764C38.1668 110.015 38.8825 109.526 39.6883 109.522C40.0343 109.522 40.3755 109.607 40.6788 109.782L43.2383 111.242C43.717 111.512 44.063 111.982 44.1862 112.522C44.3095 113.062 44.2005 113.631 43.8876 114.086L42.4847 116.119C42.1197 116.65 41.513 116.973 40.8684 116.973L40.8732 116.977Z" fill="#110A1D"/>
        <path id="Vector_9" d="M60.6919 116.845C60.0473 116.845 59.4359 116.537 59.0663 116.01L57.6775 114.053C57.3552 113.603 57.2415 113.034 57.3552 112.494C57.469 111.953 57.8102 111.479 58.2889 111.2L60.9289 109.65C61.2275 109.474 61.5688 109.38 61.9148 109.375C62.7206 109.37 63.4458 109.849 63.7586 110.593L64.7539 112.977C65.152 113.934 64.7397 115.048 63.8155 115.513L61.5688 116.636C61.2987 116.769 60.9953 116.845 60.6967 116.845H60.6919Z" fill="#110A1D"/>
        <path id="Vector_10" d="M38.7106 131.936C37.502 131.945 36.4166 131.187 36.0043 130.049L31.4115 117.408C31.1176 117.551 30.8048 117.66 30.4872 117.74C30.1128 117.835 29.7336 117.882 29.3497 117.882C29.1269 117.882 28.9089 117.873 28.6956 117.845C26.302 117.541 24.4868 115.489 24.4725 113.072C24.4536 110.398 26.6148 108.209 29.288 108.19C31.9612 108.171 34.151 110.332 34.1652 113.005C34.1652 113.621 34.0609 114.214 33.8429 114.768C33.7244 115.072 33.5775 115.361 33.4069 115.636L42.1422 119.864L48.8252 110.18C48.5456 110.062 48.2754 109.915 48.0194 109.74C47.536 109.413 47.1141 109.005 46.7729 108.526C46.1946 107.711 45.8818 106.749 45.8771 105.753C45.8581 103.08 48.0194 100.891 50.6926 100.872C50.8111 100.872 50.9344 100.872 51.0529 100.881C53.4464 101.042 55.3802 102.962 55.5556 105.355C55.6362 106.488 55.3376 107.574 54.693 108.498C54.3517 108.981 53.9346 109.394 53.4559 109.721C53.2047 109.896 52.9345 110.043 52.6549 110.161L59.4564 119.745L68.0495 115.446C67.8883 115.138 67.7604 114.816 67.6656 114.479C67.5518 114.072 67.4902 113.645 67.4902 113.214C67.4902 113.019 67.4997 112.825 67.5186 112.636C67.7935 110.199 69.8506 108.351 72.301 108.337C74.9742 108.318 77.164 110.479 77.1782 113.152C77.1971 115.702 75.2159 117.845 72.6707 118.02L72.3674 118.029C71.8744 118.029 71.391 117.963 70.9218 117.821C70.6184 117.726 70.3245 117.608 70.0496 117.456L65.7365 129.85C65.3431 130.992 64.2624 131.76 63.0538 131.77L38.7106 131.931V131.936Z" fill="#110A1D"/>
        </g>
        </g>
        <g id="Group_4">
        <path id="Vector_11" d="M100.411 -0.959878V118.635C100.411 119.624 99.6098 120.415 98.6314 120.415C97.653 120.415 96.8516 119.614 96.8516 118.635V-0.959878C96.8516 -1.9487 97.653 -2.73975 98.6314 -2.73975C99.6098 -2.73975 100.411 -1.93829 100.411 -0.959878Z" fill="white"/>
        </g>
        <g id="Group_5">
        <path id="Vector_12" d="M4.86833 -1.22013V118.375C4.86833 119.364 4.06691 120.155 3.08849 120.155C2.11008 120.155 1.30859 119.354 1.30859 118.375V-1.22013C1.30859 -2.20895 2.11008 -3 3.08849 -3C4.06691 -3 4.86833 -2.19854 4.86833 -1.22013Z" fill="white"/>
        </g>
        </g>
    </symbol>

     <symbol id="facebook" viewBox="0 0 16 16">
        <path id="Vector" d="M10.0732 3.54685H11.3266V1.42685C10.7197 1.36375 10.11 1.33259 9.4999 1.33352C7.68657 1.33352 6.44657 2.44018 6.44657 4.46685V6.21352H4.3999V8.58685H6.44657V14.6668H8.8999V8.58685H10.9399L11.2466 6.21352H8.8999V4.70018C8.8999 4.00018 9.08657 3.54685 10.0732 3.54685Z"/>
    </symbol>

    <symbol id="instagram" viewBox="0 0 16 16">
        <path id="Vector" d="M8 1.5C9.76605 1.5 9.9864 1.5065 10.6793 1.539C11.3715 1.5715 11.8428 1.68005 12.2575 1.84125C12.6865 2.00635 13.0479 2.22995 13.4093 2.5907C13.7398 2.91563 13.9956 3.30868 14.1587 3.7425C14.3193 4.15655 14.4285 4.62845 14.461 5.3207C14.4915 6.0136 14.5 6.23395 14.5 8C14.5 9.76605 14.4935 9.9864 14.461 10.6793C14.4285 11.3715 14.3193 11.8428 14.1587 12.2575C13.996 12.6916 13.7402 13.0847 13.4093 13.4093C13.0843 13.7397 12.6912 13.9954 12.2575 14.1587C11.8434 14.3193 11.3715 14.4285 10.6793 14.461C9.9864 14.4915 9.76605 14.5 8 14.5C6.23395 14.5 6.0136 14.4935 5.3207 14.461C4.62845 14.4285 4.1572 14.3193 3.7425 14.1587C3.30851 13.9959 2.91539 13.7401 2.5907 13.4093C2.26011 13.0844 2.00436 12.6914 1.84125 12.2575C1.68005 11.8434 1.5715 11.3715 1.539 10.6793C1.50845 9.9864 1.5 9.76605 1.5 8C1.5 6.23395 1.5065 6.0136 1.539 5.3207C1.5715 4.6278 1.68005 4.1572 1.84125 3.7425C2.0039 3.30842 2.25972 2.91526 2.5907 2.5907C2.91549 2.26 3.30858 2.00422 3.7425 1.84125C4.1572 1.68005 4.6278 1.5715 5.3207 1.539C6.0136 1.50845 6.23395 1.5 8 1.5ZM8 4.75C7.13805 4.75 6.3114 5.09241 5.7019 5.7019C5.09241 6.3114 4.75 7.13805 4.75 8C4.75 8.86195 5.09241 9.6886 5.7019 10.2981C6.3114 10.9076 7.13805 11.25 8 11.25C8.86195 11.25 9.6886 10.9076 10.2981 10.2981C10.9076 9.6886 11.25 8.86195 11.25 8C11.25 7.13805 10.9076 6.3114 10.2981 5.7019C9.6886 5.09241 8.86195 4.75 8 4.75ZM12.225 4.5875C12.225 4.37201 12.1394 4.16535 11.987 4.01298C11.8347 3.8606 11.628 3.775 11.4125 3.775C11.197 3.775 10.9903 3.8606 10.838 4.01298C10.6856 4.16535 10.6 4.37201 10.6 4.5875C10.6 4.80299 10.6856 5.00965 10.838 5.16202C10.9903 5.3144 11.197 5.4 11.4125 5.4C11.628 5.4 11.8347 5.3144 11.987 5.16202C12.1394 5.00965 12.225 4.80299 12.225 4.5875ZM8 6.05C8.51717 6.05 9.01316 6.25545 9.37886 6.62114C9.74455 6.98684 9.95 7.48283 9.95 8C9.95 8.51717 9.74455 9.01316 9.37886 9.37886C9.01316 9.74455 8.51717 9.95 8 9.95C7.48283 9.95 6.98684 9.74455 6.62114 9.37886C6.25545 9.01316 6.05 8.51717 6.05 8C6.05 7.48283 6.25545 6.98684 6.62114 6.62114C6.98684 6.25545 7.48283 6.05 8 6.05Z"/>
    </symbol>

    <symbol id="linkedIn" viewBox="0 0 16 16">
        <path id="Vector" d="M1.875 2.75241C1.875 2.26777 2.27772 1.875 2.77461 1.875H13.2254C13.7223 1.875 14.125 2.26777 14.125 2.75241V13.2476C14.125 13.7322 13.7223 14.125 13.2254 14.125H2.77461C2.27772 14.125 1.875 13.7322 1.875 13.2476V2.75241ZM5.65948 12.1298V6.59814H3.82122V12.1298H5.65948ZM4.74073 5.84247C5.38156 5.84247 5.78045 5.41831 5.78045 4.88697C5.76897 4.34414 5.38233 3.93147 4.75298 3.93147C4.12364 3.93147 3.7125 4.34491 3.7125 4.88697C3.7125 5.41831 4.11139 5.84247 4.72848 5.84247H4.74073ZM8.49842 12.1298V9.04048C8.49842 8.87511 8.51067 8.70973 8.55967 8.59183C8.69212 8.26184 8.99455 7.91961 9.50292 7.91961C10.1683 7.91961 10.4339 8.42645 10.4339 9.17064V12.1298H12.2722V8.95703C12.2722 7.25734 11.3657 6.46722 10.156 6.46722C9.18059 6.46722 8.74342 7.00316 8.49842 7.38061V7.39975H8.48617C8.49024 7.39336 8.49432 7.38698 8.49842 7.38061V6.59814H6.66092C6.68389 7.11723 6.66092 12.1298 6.66092 12.1298H8.49842Z"/>
    </symbol>

     <symbol id="telegram" viewBox="0 0 16 16">
        <path id="Vector" d="M12.6437 3.13212C12.6437 3.13212 13.7768 2.69025 13.682 3.76329C13.6508 4.20516 13.3676 5.75187 13.1471 7.42458L12.3917 12.38C12.3917 12.38 12.3287 13.106 11.762 13.2322C11.1956 13.3582 10.3457 12.7904 10.1882 12.6641C10.0622 12.5693 7.82742 11.1489 7.0405 10.4547C6.82 10.2651 6.568 9.88654 7.072 9.44466L10.3769 6.28825C10.7546 5.90966 11.1323 5.02591 9.55846 6.09896L5.15138 9.09729C5.15138 9.09729 4.64767 9.41316 3.70354 9.12908L1.65721 8.49762C1.65721 8.49762 0.901794 8.02425 2.19242 7.55087C5.34038 6.06746 9.21225 4.55254 12.6431 3.13212H12.6437Z"/>
    </symbol>

     <symbol id="tikTok" viewBox="0 0 16 16">
        <path id="Vector_2" fill-rule="evenodd" clip-rule="evenodd" d="M9.0125 1.9248C9.38529 1.9248 9.6875 2.22701 9.6875 2.5998C9.6875 3.31589 9.97197 4.00265 10.4783 4.50899C10.9847 5.01534 11.6714 5.29981 12.3875 5.29981C12.7603 5.29981 13.0625 5.60201 13.0625 5.9748C13.0625 6.3476 12.7603 6.64981 12.3875 6.64981C11.3887 6.64981 10.428 6.28088 9.6875 5.6185V10.6998C9.6875 11.3673 9.48956 12.0198 9.11871 12.5749C8.74786 13.1299 8.22076 13.5625 7.60406 13.8179C6.98736 14.0733 6.30876 14.1402 5.65407 14.01C4.99939 13.8797 4.39802 13.5583 3.92602 13.0863C3.45401 12.6143 3.13258 12.0129 3.00235 11.3582C2.87213 10.7035 2.93896 10.0249 3.19441 9.40825C3.44985 8.79155 3.88244 8.26445 4.43745 7.8936C4.99247 7.52275 5.64499 7.32481 6.3125 7.32481C6.68529 7.32481 6.9875 7.62701 6.9875 7.99981C6.9875 8.3726 6.68529 8.67481 6.3125 8.67481C5.91199 8.67481 5.52048 8.79357 5.18747 9.01608C4.85446 9.23859 4.59491 9.55485 4.44165 9.92487C4.28838 10.2949 4.24828 10.7021 4.32641 11.0949C4.40455 11.4877 4.59741 11.8485 4.88061 12.1317C5.16381 12.4149 5.52463 12.6078 5.91744 12.6859C6.31026 12.764 6.71742 12.7239 7.08744 12.5707C7.45746 12.4174 7.77372 12.1578 7.99623 11.8248C8.21874 11.4918 8.3375 11.1003 8.3375 10.6998V2.5998C8.3375 2.22701 8.63971 1.9248 9.0125 1.9248Z"/>
    </symbol>

    <symbol id="twitter" viewBox="0 0 16 16">
        <path id="Vector_2" d="M13.3116 5.5386V5.91283C13.3116 9.68139 10.5585 14.0001 5.52064 14.0001C4.03341 14.0034 2.57777 13.5546 1.33325 12.709C1.54939 12.7394 1.76741 12.7532 1.9855 12.7501C3.2183 12.7536 4.41643 12.3266 5.38731 11.5376C4.81458 11.5288 4.25908 11.3328 3.79976 10.9774C3.34044 10.622 3.00067 10.1253 2.82875 9.55789C2.99935 9.59545 3.17328 9.61426 3.34767 9.61402C3.59118 9.61408 3.8336 9.58009 4.06839 9.51298C3.44806 9.38456 2.88998 9.03625 2.48965 8.52766C2.08932 8.01907 1.87161 7.38181 1.87379 6.72493V6.6875C2.25332 6.90767 2.67883 7.02842 3.11343 7.03928C2.53491 6.64393 2.12359 6.03408 1.96351 5.33434C1.80344 4.63461 1.90669 3.8978 2.25217 3.27447C2.94055 4.15374 3.79941 4.87271 4.77291 5.38465C5.74641 5.89658 6.81275 6.19003 7.90262 6.2459C7.84867 6.0335 7.82321 5.81437 7.82695 5.59473C7.80665 5.01426 7.95913 4.4414 8.2636 3.95414C8.56807 3.46689 9.00975 3.08893 9.52849 2.87173C10.0472 2.65452 10.6178 2.60863 11.1626 2.7403C11.7074 2.87196 12.1998 3.17479 12.5729 3.60754C13.1861 3.47902 13.7744 3.24502 14.3134 2.91521C14.109 3.5856 13.6742 4.15442 13.0918 4.51319C13.6358 4.43535 14.1662 4.27654 14.6666 4.04166C14.3039 4.62009 13.8451 5.12696 13.3116 5.5386Z"/>
    </symbol>

     <symbol id="vk" viewBox="0 0 16 16">
        <path fill-rule="evenodd" clip-rule="evenodd" d="M1.31137 4.54035C1.37193 4.45212 1.46882 4.3999 1.57195 4.3999H3.78376C3.90777 4.3999 4.02076 4.47519 4.07424 4.59345C4.20876 4.89094 4.3395 5.19186 4.46885 5.48956C4.76915 6.18075 5.0619 6.85456 5.37691 7.42766C5.60015 7.8338 5.82287 8.16627 6.05001 8.40235C6.14614 8.50227 6.23943 8.58119 6.33039 8.64085V5.82015L5.66793 4.95414C5.58994 4.85217 5.57431 4.7119 5.62776 4.59357C5.68121 4.47524 5.79423 4.3999 5.91829 4.3999H8.99293C9.17074 4.3999 9.31488 4.55225 9.31488 4.74019V7.9274C9.68263 7.54399 9.9704 7.10703 10.2332 6.63856C10.3845 6.3689 10.5247 6.09411 10.6684 5.81235C10.7032 5.74424 10.7381 5.67572 10.7735 5.60677C10.9534 5.25619 11.142 4.89842 11.3578 4.55278C11.4173 4.45733 11.5183 4.3999 11.6265 4.3999H13.7449C13.8448 4.3999 13.9391 4.44891 14 4.53256C14.061 4.61621 14.0817 4.72503 14.0562 4.82711C13.6506 6.44996 12.8611 7.58348 12.1084 8.66435C12.0786 8.70704 12.049 8.74966 12.0194 8.79221C13.0413 9.75879 13.8603 10.9427 14.4219 12.2677C14.4665 12.373 14.4576 12.495 14.3983 12.5919C14.3389 12.6887 14.2372 12.7471 14.128 12.7471H11.7971C11.7199 12.7471 11.6453 12.7178 11.5868 12.6645C11.3405 12.4399 11.1286 12.1942 10.9333 11.9593C10.8933 11.9112 10.8543 11.8638 10.8158 11.8172C10.6622 11.631 10.5179 11.4561 10.3626 11.2915C10.065 10.976 9.74511 10.7185 9.31488 10.5742V12.4069C9.31488 12.5782 9.1943 12.7229 9.03345 12.7444C6.41928 13.095 4.66121 11.7367 3.47696 9.99732C2.33877 8.32559 1.70433 6.2678 1.30257 4.96468C1.29012 4.9243 1.2779 4.88466 1.26589 4.84577C1.23389 4.74214 1.2508 4.62858 1.31137 4.54035ZM2.01594 5.08048C2.42013 6.37792 3.01304 8.15076 3.9996 9.59979C5.04888 11.1409 6.51702 12.2816 8.67098 12.1001V10.1473C8.67098 10.0481 8.71194 9.95388 8.78313 9.88923C8.85433 9.82459 8.94867 9.796 9.04145 9.81095C9.84935 9.94114 10.3812 10.3473 10.8186 10.811C10.9906 10.9934 11.1527 11.1899 11.3075 11.3776C11.3444 11.4224 11.3809 11.4666 11.417 11.51C11.5818 11.7082 11.7436 11.8957 11.9196 12.0666H13.6159C13.0631 10.9341 12.3028 9.92685 11.3774 9.10451C11.2481 8.98959 11.2249 8.78857 11.3241 8.64409C11.4125 8.51555 11.5007 8.38858 11.5885 8.26236C12.2699 7.28221 12.9196 6.34769 13.314 5.08048H11.8021C11.6395 5.35381 11.4898 5.63825 11.3396 5.93118C11.3058 5.99698 11.2719 6.06336 11.2379 6.13016C11.0936 6.41292 10.9457 6.7029 10.7871 6.98566C10.3922 7.68961 9.91397 8.38129 9.17971 8.93406C9.08154 9.00796 8.95254 9.01773 8.84542 8.95936C8.73829 8.901 8.67098 8.78428 8.67098 8.65689V5.08048H6.59261L6.9027 5.48585C6.94902 5.54641 6.97429 5.62193 6.97429 5.6998V9.11968C6.97429 9.21677 6.93506 9.30924 6.86645 9.37381C6.79785 9.43838 6.70642 9.4689 6.61518 9.4577C6.22148 9.40934 5.88503 9.18537 5.59854 8.88762C5.31247 8.59029 5.05609 8.1988 4.82014 7.76954C4.48888 7.16686 4.17473 6.44394 3.8684 5.73901C3.7716 5.51625 3.67558 5.29528 3.58004 5.08048H2.01594Z"/>
        <path d="M3.9996 9.59979C3.01304 8.15076 2.42013 6.37792 2.01594 5.08048H3.58004C3.67558 5.29528 3.7716 5.51625 3.8684 5.73901C4.17473 6.44394 4.48888 7.16686 4.82014 7.76954C5.05609 8.1988 5.31247 8.59029 5.59854 8.88762C5.88503 9.18537 6.22148 9.40934 6.61518 9.4577C6.70642 9.4689 6.79785 9.43838 6.86645 9.37381C6.93506 9.30924 6.97429 9.21677 6.97429 9.11968V5.6998C6.97429 5.62193 6.94902 5.54641 6.9027 5.48585L6.59261 5.08048H8.67098V8.65689C8.67098 8.78428 8.73829 8.901 8.84542 8.95936C8.95254 9.01773 9.08154 9.00796 9.17971 8.93406C9.91397 8.38129 10.3922 7.68961 10.7871 6.98566C10.9457 6.7029 11.0936 6.41292 11.2379 6.13016C11.2719 6.06336 11.3058 5.99698 11.3396 5.93118C11.4898 5.63825 11.6395 5.35381 11.8021 5.08048H13.314C12.9196 6.34769 12.2699 7.28221 11.5885 8.26236C11.5007 8.38858 11.4125 8.51555 11.3241 8.64409C11.2249 8.78857 11.2481 8.98959 11.3774 9.10451C12.3028 9.92685 13.0631 10.9341 13.6159 12.0666H11.9196C11.7436 11.8957 11.5818 11.7082 11.417 11.51C11.3809 11.4666 11.3444 11.4224 11.3075 11.3776C11.1527 11.1899 10.9906 10.9934 10.8186 10.811C10.3812 10.3473 9.84935 9.94114 9.04145 9.81095C8.94867 9.796 8.85433 9.82459 8.78313 9.88923C8.71194 9.95388 8.67098 10.0481 8.67098 10.1473V12.1001C6.51702 12.2816 5.04888 11.1409 3.9996 9.59979Z"/>
    </symbol>

     <symbol id="youTube" viewBox="0 0 16 16">
        <path d="M6.66659 9.99992L10.1266 7.99992L6.66659 5.99992V9.99992ZM14.3733 4.77992C14.4599 5.09325 14.5199 5.51325 14.5599 6.04659C14.6066 6.57992 14.6266 7.03992 14.6266 7.43992L14.6666 7.99992C14.6666 9.45992 14.5599 10.5333 14.3733 11.2199C14.2066 11.8199 13.8199 12.2066 13.2199 12.3733C12.9066 12.4599 12.3333 12.5199 11.4533 12.5599C10.5866 12.6066 9.79325 12.6266 9.05992 12.6266L7.99992 12.6666C5.20659 12.6666 3.46659 12.5599 2.77992 12.3733C2.17992 12.2066 1.79325 11.8199 1.62659 11.2199C1.53992 10.9066 1.47992 10.4866 1.43992 9.95325C1.39325 9.41992 1.37325 8.95992 1.37325 8.55992L1.33325 7.99992C1.33325 6.53992 1.43992 5.46659 1.62659 4.77992C1.79325 4.17992 2.17992 3.79325 2.77992 3.62659C3.09325 3.53992 3.66659 3.47992 4.54659 3.43992C5.41325 3.39325 6.20659 3.37325 6.93992 3.37325L7.99992 3.33325C10.7933 3.33325 12.5333 3.43992 13.2199 3.62659C13.8199 3.79325 14.2066 4.17992 14.3733 4.77992Z"/>
    </symbol>

    <symbol id="network-bg" viewBox="0 0 32 32">
        <path id="Union" fill-rule="evenodd" clip-rule="evenodd" d="M0 16C0 24.8202 7.17648 32 16 32C24.8202 32 32 24.8202 32 16C32 7.17982 24.8202 0 16 0C7.17984 0 0 7.17982 0 16ZM5.94191 4.96936C8.59784 2.54552 12.1292 1.06554 16 1.06554C19.8696 1.06554 23.4 2.54462 26.0557 4.96715L24.8681 6.1547C22.5199 4.03823 19.4105 2.75 16 2.75C12.5883 2.75 9.47794 4.03912 7.12944 6.15689L5.94191 4.96936ZM4.96751 5.94395C2.54476 8.59964 1.06554 12.1302 1.06554 16C1.06554 19.8694 2.54451 23.3997 4.96688 26.0553L6.15441 24.8678C4.03812 22.5196 2.75 19.4104 2.75 16C2.75 12.5893 4.03837 9.47974 6.15505 7.13149L4.96751 5.94395ZM5.94122 27.03C8.59723 29.4542 12.1289 30.9344 16 30.9344C19.8692 30.9344 23.3992 29.4557 26.0548 27.0337L24.8672 25.8461C22.5191 27.9621 19.4101 29.25 16 29.25C12.5879 29.25 9.47731 27.9606 7.12874 25.8425L5.94122 27.03ZM30.9345 16C30.9345 19.8714 29.454 23.4033 27.0295 26.0593L25.842 24.8718C27.9604 22.5232 29.25 19.4123 29.25 16C29.25 12.5881 27.9607 9.47761 25.8428 7.12907L27.0303 5.94154C29.4543 8.5975 30.9345 12.129 30.9345 16Z"/>
    </symbol>
</svg>
